<?xml version="1.0" encoding="utf-8" ?>
<svg xmlns="http://www.w3.org/2000/svg" width="1024" height="1024">
	<path fill="#283D5D" d="M512.038 51.2414C520.589 51.1014 528.828 53.2139 536.463 56.9933C543.927 60.6879 551.076 65.4354 558.266 69.6606L600.552 94.4842L750.91 182.805L849.731 240.975Q863.134 248.79 876.655 256.398C885.152 261.182 893.839 265.67 901.474 271.8C913.68 281.6 922.191 296.467 923.812 312.101C924.819 321.803 924.273 331.754 924.184 341.499L923.987 385.4L923.997 538.571L924.158 663.577C924.065 678.161 925.602 695.923 923.894 709.955C922.358 722.582 917.283 733.384 909.187 743.161C905.108 748.087 900.212 751.928 894.863 755.383C886.482 760.796 877.652 765.602 869.028 770.622L827.226 795.182L687.109 878.071L590.001 935.527C573.431 945.39 557.137 956.305 540.004 965.124C532.206 969.139 524.232 971.233 515.524 972.077L515.047 972.103C504.413 972.614 494.395 970.075 484.886 965.418C476.477 961.299 468.523 955.797 460.501 950.95C449.823 944.498 438.959 938.358 428.224 932.002L305.561 859.396L194.455 794.339L152.647 770.293C141.713 763.971 129.477 757.937 120.154 749.344Q119.041 748.312 117.978 747.227Q116.916 746.143 115.908 745.008Q114.9 743.873 113.947 742.69Q112.995 741.508 112.102 740.281Q111.208 739.054 110.374 737.785Q109.541 736.516 108.77 735.208Q107.999 733.9 107.293 732.556Q106.586 731.213 105.945 729.836Q105.305 728.46 104.731 727.054Q104.158 725.649 103.654 724.217Q103.149 722.785 102.714 721.33Q102.28 719.876 101.916 718.402Q101.553 716.928 101.261 715.438Q100.969 713.948 100.75 712.446Q100.53 710.944 100.384 709.432Q100.238 707.921 100.165 706.405C99.7256 695.587 100.021 684.66 100.032 673.832L100.044 618.49L99.9423 445.141L99.978 356.885C99.9584 342.639 98.7171 322.751 100.762 309.094C102.518 297.367 108.377 285.745 116.437 277.091C126.52 266.264 144.516 257.386 157.479 250.015Q175.505 239.845 193.427 229.494L326.034 151.694L435.541 87.0672C452.357 77.1902 468.758 66.1685 486.208 57.4424C494.791 53.1502 502.462 51.5744 512.038 51.2414Z"/>
	<path fill="#D4DCE1" d="M509.212 72.1701C517.617 71.1406 524.766 74.7824 531.996 78.5113C540.212 82.7484 547.983 88.0645 555.958 92.7503L607.441 122.834L764.646 215.312L846.278 263.222Q857.5 269.749 868.805 276.13C874.5 279.351 880.792 282.509 885.948 286.555C895.179 293.799 901.804 304.051 903.124 315.876C903.916 322.976 903.613 330.35 903.664 337.496Q903.803 357.271 903.734 377.046L903.529 495.278L903.966 636.206L904.01 678.434C904.015 688.475 904.255 698.646 903.304 708.655C902.657 715.462 899.728 722.853 895.424 728.178C891.166 733.445 884.863 737.279 879.214 740.869C861.787 751.944 843.36 761.838 825.556 772.338L704.83 843.51L591.149 911.027C572.039 922.383 553.093 934.448 533.585 945.07C528.326 947.934 522.378 951.13 516.33 951.692C506.422 952.526 499.126 948.907 490.501 944.477C479.232 938.69 468.574 931.738 457.79 925.113Q443.661 916.614 429.437 908.276L295.545 829.144L189.615 767.298C172.384 757.287 153.512 748.388 137.432 736.631C128.694 730.242 122.941 721.728 121.398 710.874C120.398 703.838 120.882 696.344 120.92 689.253L120.939 659.131L120.929 549.113L120.924 391.237L120.835 345.052C120.781 334.904 120.283 324.643 121.154 314.522C121.775 307.298 125.045 300.237 129.394 294.508C132.488 290.434 136.098 287.333 140.374 284.555C156.707 273.942 174.103 264.731 190.876 254.801Q253.328 217.561 316.34 181.274L439.383 109.243C458.067 98.3731 476.582 86.5307 495.697 76.4981C500.061 74.2077 504.328 72.809 509.212 72.1701Z"/>
	<path fill="#283D5D" d="M220.37 703.384C209.035 692.193 203.485 680.807 203.38 664.824L203.456 430.858L203.489 362.264C203.441 348.533 202.296 334.498 204.018 320.841C204.995 313.092 208.29 305.201 213.815 299.603C223.661 289.628 247.1 278.696 260.14 271.303L335.709 228.299L430.006 173.614Q451.884 160.615 474.03 148.078C480.222 144.551 486.347 140.614 492.708 137.418C498.669 134.423 505.339 132.592 512.034 132.634C519.931 132.683 527.131 135.27 534.129 138.746C541.121 142.22 547.61 146.726 554.406 150.564L620.826 188.54L746.357 259.942Q765.782 270.887 785.054 282.101C793.557 287.023 803.453 291.276 810.417 298.334C821.385 309.45 820.664 324.44 820.455 338.932C820.036 368.088 820.398 397.217 820.404 426.374L820.266 576.26L820.188 635.34C820.166 648.277 821.114 662.149 818.621 674.877C816.26 686.93 809.219 696.441 800.568 704.845C800.428 704.98 800.285 705.113 800.143 705.247C806.942 709.526 814.195 712.812 821.123 716.831C823.344 718.118 827.428 720.629 827.678 723.532C827.801 724.962 827.255 725.857 826.344 726.892C820.101 733.981 799.399 743.247 790.518 748.114Q776.933 755.637 763.448 763.339L604.061 853.86C581.725 866.557 559.835 880.601 537.119 892.544C530.236 896.163 523.387 899.245 515.566 899.966C507.229 900.735 499.982 898.871 492.482 895.301C485.394 891.927 478.806 887.683 472.054 883.702Q459.306 876.296 446.483 869.02L337.652 806.67L254.344 759.646C242.78 753.205 231.317 746.677 219.891 739.993C214.284 736.712 207.918 733.656 202.989 729.414C200.541 727.306 199.521 725.231 199.408 721.954C199.017 710.586 214.903 710.409 220.073 703.856C220.189 703.71 220.271 703.541 220.37 703.384Z"/>
	<path fill="#BDC5CE" d="M220.37 703.384C236.482 715.173 255.314 723.742 272.709 733.517L371.651 789.442L459.112 839.081C470.461 845.518 481.342 853.611 493.264 858.898C501.335 862.476 509.996 863.752 518.752 862.44C523.653 861.706 528.281 859.982 532.684 857.743C540.622 853.708 548.225 848.947 555.984 844.575Q579.39 831.679 602.59 818.416L727.628 747.611C739.59 740.74 751.484 733.691 763.565 727.034C775.828 720.276 789.481 714.446 800.143 705.247C806.942 709.526 814.195 712.812 821.123 716.831C823.344 718.118 827.428 720.629 827.678 723.532C827.801 724.962 827.255 725.857 826.344 726.892C820.101 733.981 799.399 743.247 790.518 748.114Q776.933 755.637 763.448 763.339L604.061 853.86C581.725 866.557 559.835 880.601 537.119 892.544C530.236 896.163 523.387 899.245 515.566 899.966C507.229 900.735 499.982 898.871 492.482 895.301C485.394 891.927 478.806 887.683 472.054 883.702Q459.306 876.296 446.483 869.02L337.652 806.67L254.344 759.646C242.78 753.205 231.317 746.677 219.891 739.993C214.284 736.712 207.918 733.656 202.989 729.414C200.541 727.306 199.521 725.231 199.408 721.954C199.017 710.586 214.903 710.409 220.073 703.856C220.189 703.71 220.271 703.541 220.37 703.384Z"/>
	<path fill="#FEFEFD" d="M227.041 317.974C228.732 315.224 230.952 313.124 233.682 311.408C252.943 299.296 273.385 288.792 293.048 277.309Q370.08 232.106 447.752 188.016L475.47 172.028C485.194 166.294 495.831 157.888 506.937 155.449C512.629 154.199 517.683 155.316 522.885 157.663C529.615 160.7 536.008 164.848 542.402 168.547C550.288 173.11 558.284 177.484 566.204 181.99L654.23 232.272L742.006 282.545L772.912 300.1C779.02 303.584 785.374 306.936 791.21 310.855C793.899 312.66 795.537 315.077 796.969 317.931C798.26 324.653 797.656 332.247 797.597 339.077C779.412 349.968 760.646 360.087 742.204 370.545L615.563 441.749Q588.045 457.254 560.694 473.054C549.925 479.233 539.072 486.309 527.58 491.032C519.409 494.39 510.333 496.486 501.852 492.863C488.25 487.054 475.713 478.316 462.886 471.007L398.349 435.064L291.039 375.188C272.291 364.739 252.872 355.086 234.76 343.565C230.646 340.948 227.117 338.816 225.369 333.982C223.42 328.591 224.71 322.997 227.041 317.974Z"/>
	<path fill="#D4DCE1" d="M227.041 317.974C234.302 321.772 241.182 326.344 248.211 330.557Q260.117 337.543 272.205 344.21L359.492 392.885Q403.379 418.22 447.845 442.522C458.165 448.037 468.244 454.037 478.321 459.979C485.131 463.993 491.937 468.358 499.263 471.376C505.363 473.888 511.78 475.435 518.281 473.359C528.242 470.178 537.537 462.923 546.575 457.661C553.504 453.626 560.724 449.965 567.767 446.116C593.236 432.2 618.267 417.578 643.6 403.45C664.857 391.596 686.444 380.302 707.523 368.128Q735.175 351.867 763.149 336.168C774.128 329.885 785.154 322.51 796.969 317.931C798.26 324.653 797.656 332.247 797.597 339.077C779.412 349.968 760.646 360.087 742.204 370.545L615.563 441.749Q588.045 457.254 560.694 473.054C549.925 479.233 539.072 486.309 527.58 491.032C519.409 494.39 510.333 496.486 501.852 492.863C488.25 487.054 475.713 478.316 462.886 471.007L398.349 435.064L291.039 375.188C272.291 364.739 252.872 355.086 234.76 343.565C230.646 340.948 227.117 338.816 225.369 333.982C223.42 328.591 224.71 322.997 227.041 317.974Z"/>
	<path fill="#283D5D" d="M606.494 263.543C610.964 264.239 614.753 265.918 617.502 269.657C619.507 272.385 620.534 275.884 619.919 279.25C619.341 282.415 617.568 284.645 615.348 286.845C607.222 294.898 598.017 301.884 589.318 309.302L545.162 347.486L507.54 380.406C500.267 386.83 493.061 393.989 485.131 399.587C481.727 401.99 478.377 403.239 474.152 402.458C471.137 401.901 469.366 399.79 467.429 397.594C460.8 390.076 455.5 381.094 449.681 372.917L413.993 322.81C409.264 316.754 401.375 308.169 402.547 299.919C403.02 296.595 405.279 293.243 407.952 291.263C410.471 289.395 413.509 288.689 416.598 289.248C419.97 289.858 422.186 291.403 424.517 293.804C430.967 300.444 435.672 308.884 441.09 316.363Q460.77 343.337 480.035 370.609C491.334 362.215 501.472 352.143 512.06 342.872L571.502 290.927C580.176 283.296 588.424 274.663 597.746 267.854C600.601 265.768 603.013 264.409 606.494 263.543Z"/>
	<path fill="#73C09E" d="M225.446 364.194C235.069 368.83 244.402 374.443 253.692 379.716L288.171 399.036L420.676 473.532C447.18 488.447 473.38 504.384 500.766 517.61C501.297 526.935 501.014 536.346 500.994 545.685L500.985 588.756L501.048 727.548Q501.245 766.98 501.028 806.411C500.989 815.889 502.364 827.763 500.471 836.848C499.946 836.879 499.762 836.924 499.188 836.765C494.871 835.57 489.542 831.703 485.597 829.498Q464.641 817.758 443.874 805.688L335.746 744.558L267.756 706.258C257.622 700.611 246.79 695.671 236.986 689.528C234.177 687.767 230.376 685.653 228.826 682.629C228.702 682.388 228.593 682.139 228.474 681.895C226.837 678.53 225.787 675.294 225.56 671.539C224.826 659.42 225.38 647.103 225.413 634.96L225.483 570.634L225.446 364.194Z"/>
	<path fill="#FEFEFD" d="M318.274 508.678C318.412 508.655 318.549 508.622 318.689 508.608C347.603 505.528 377.72 520.102 399.605 537.926C432.043 564.345 457.35 605.249 461.448 647.321C463.134 664.626 459.995 683.593 448.539 697.246C438.196 709.572 423.398 714.599 407.818 715.999C380.25 716.3 354.972 705.478 333.24 689.113C299.39 663.624 268.825 622.027 263.068 579.326C260.849 562.864 263.312 545.103 273.662 531.644C284.347 517.75 301.359 510.974 318.274 508.678Z"/>
	<path fill="#73C09E" d="M322.239 522.184C322.275 522.179 322.311 522.172 322.348 522.169C351.386 520.093 377.544 534.196 398.751 552.901C425.445 576.446 446.621 612.848 448.818 648.682C449.679 662.718 446.493 677.532 436.92 688.275C428.334 697.908 416.301 701.858 403.734 702.507C378.044 702.694 355.55 691.539 335.724 676.015C307.067 653.575 280.398 617.437 276.143 580.75C274.508 566.65 276.71 551.647 285.819 540.326C294.831 529.126 308.247 523.705 322.239 522.184Z"/>
	<path fill="#FEFEFD" d="M415.359 592.49C416.45 592.425 417.555 592.391 418.638 592.573C421.556 593.063 424.731 595.562 426.381 597.943C427.959 600.22 428.219 602.301 427.783 604.977C426.045 607.242 423.133 609.242 420.673 610.688C407.969 618.155 394.259 624.49 381.236 631.477C367.317 638.944 353.799 647.137 339.869 654.571C338.607 654.843 337.351 655.121 336.056 654.93C333.315 654.524 330.563 652.853 329.058 650.514C327.897 648.709 327.148 645.727 327.732 643.624C329.455 637.419 405.848 597.539 415.359 592.49Z"/>
	<path fill="#FEFEFD" d="M369.343 573.921C370.269 574.158 371.186 574.392 372.068 574.769C374.882 575.972 378.828 579.188 379.715 582.251C380.142 583.722 380.128 585.052 379.307 586.386C374.606 594.025 355.481 603.354 347.124 608.469C340.519 612.512 334.13 616.988 327.209 620.487C325.009 621.6 322.774 622.339 320.408 623.012C311.436 617.605 306.039 607.507 300.555 598.92C297.475 594.565 290.754 587.062 291.218 581.656C291.375 579.824 292.731 577.855 294.109 576.708C295.344 575.679 296.848 575.255 298.444 575.534C306.439 576.93 317.403 595.163 321.791 601.547C338.075 593.028 353.643 583.448 369.343 573.921Z"/>
	<path fill="#FEFEFD" d="M523.607 518.655C547.765 505.833 571.375 491.618 595.23 478.194L730.702 401.836C752.968 389.119 774.953 375.624 797.552 363.537L797.517 379.741L797.619 576.106C797.618 607.294 798.281 638.612 797.632 669.778C796.011 678.439 792.184 685.651 784.77 690.733C775.193 697.296 764.536 702.3 754.42 707.971L696.858 740.462C639.21 773.001 581.847 806.249 523.743 837.955C523.44 832.555 523.434 827.166 523.417 821.76L523.867 532.771L523.607 518.655Z"/>
	<path fill="#D4DCE1" d="M523.607 518.655C547.765 505.833 571.375 491.618 595.23 478.194L730.702 401.836C752.968 389.119 774.953 375.624 797.552 363.537L797.517 379.741C776.671 392.45 754.961 403.652 733.641 415.529L632.033 472.82L580.696 501.646C572.805 506.176 564.819 510.664 556.989 515.283C547.513 520.872 534.271 530.332 523.867 532.771L523.607 518.655Z"/>
	<path fill="#D4DCE1" d="M797.632 669.778C796.011 678.439 792.184 685.651 784.77 690.733C775.193 697.296 764.536 702.3 754.42 707.971L696.858 740.462C639.21 773.001 581.847 806.249 523.743 837.955C523.44 832.555 523.434 827.166 523.417 821.76C532.842 818.049 541.339 812.335 550.133 807.371L594.144 782.745L753.975 693.202C762.507 688.436 790.559 670.896 797.632 669.778Z"/>
	<path fill="#283D5D" d="M729.209 510.482C731.915 510.444 733.968 510.729 736.294 512.209C738.357 513.523 739.661 515.448 740.159 517.838C740.914 521.466 738.747 526.122 737.452 529.46C733.279 540.215 728.251 550.697 723.536 561.224Q712.845 585.011 702.617 609.001Q692.827 632.035 682.739 654.941C679.197 663.192 676.431 672.312 671.623 679.902C669.662 682.998 667.846 685.488 664.034 686.199C661.258 686.716 658.435 685.919 655.953 684.696C647.487 680.523 639.831 673.297 632.255 667.676C625.993 663.03 619.359 658.913 612.906 654.543C607.758 651.057 600.119 646.585 599.108 639.906C598.62 636.687 600.386 632.38 602.3 629.85C603.908 627.724 606.179 626.025 608.887 625.717C610.516 625.533 612.103 625.89 613.568 626.602C618.677 629.085 623.147 632.961 627.752 636.256Q642.557 646.76 657.106 657.615C659.899 651.955 662.362 646.174 664.828 640.365C673.172 621.961 680.815 603.254 688.84 584.712C693.87 573.089 699.52 561.621 704.096 549.819C689.938 559.322 674.106 566.809 659.312 575.312C645.347 583.339 631.84 592.827 617.186 599.534C614.406 600.806 611.365 602.235 608.227 601.612C605.596 601.09 602.797 598.897 601.398 596.645C599.68 593.878 599.174 590.35 600.123 587.223C601.192 583.701 603.8 581.97 606.707 580.035C612.923 575.898 619.822 572.6 626.354 568.974L663.196 548.359L709.641 521.923C716.196 518.143 722.484 513.971 729.209 510.482Z"/>
</svg>
